<?xml version="1.0" encoding="utf-8"?>
<!-- Generator: Adobe Illustrator 18.1.1, SVG Export Plug-In . SVG Version: 6.00 Build 0)  -->
<svg version="1.1" id="Layer_1" xmlns="http://www.w3.org/2000/svg" xmlns:xlink="http://www.w3.org/1999/xlink" x="0px" y="0px"
	 viewBox="0 0 792 612" enable-background="new 0 0 792 612" xml:space="preserve">
<rect x="217.3" y="281.2" fill="none" stroke="#000000" stroke-miterlimit="10" width="65.8" height="28"/>
<rect x="235.2" y="288.3" fill="none" width="74.2" height="26.5"/>
<text transform="matrix(1 0 0 1 235.2257 297.5322)" font-family="'ArialMT'" font-size="13.0055">Card</text>
<g>
	<ellipse fill="none" stroke="#000000" stroke-miterlimit="10" cx="98.2" cy="110.3" rx="35.3" ry="16.3"/>
	<rect x="77.1" y="107.7" fill="none" width="79.4" height="28.4"/>
	<text transform="matrix(1 0 0 1 77.1078 113.345)" font-family="'ArialMT'" font-size="7.9545">Card Picture</text>
</g>
<g>
	<ellipse fill="none" stroke="#000000" stroke-miterlimit="10" cx="107.2" cy="149.4" rx="35.3" ry="16.3"/>
	<rect x="86.1" y="146.8" fill="none" width="79.4" height="28.4"/>
	<text transform="matrix(1 0 0 1 86.1484 152.4771)" font-family="'ArialMT'" font-size="7.9545">Card Name</text>
</g>
<g>
	<ellipse fill="none" stroke="#000000" stroke-miterlimit="10" cx="105.3" cy="202.6" rx="35.3" ry="16.3"/>
	<rect x="84.2" y="200" fill="none" width="79.4" height="28.4"/>
	<text transform="matrix(1 0 0 1 84.2379 205.6544)" font-family="'ArialMT'" font-size="7.9545">CMC</text>
</g>
<g>
	<ellipse fill="none" stroke="#000000" stroke-miterlimit="10" cx="105.3" cy="255" rx="35.3" ry="16.3"/>
	<rect x="84.2" y="252.4" fill="none" width="79.4" height="28.4"/>
	<text transform="matrix(1 0 0 1 84.2378 258.0198)" font-family="'ArialMT'" font-size="7.9545">Type</text>
</g>
<g>
	<ellipse fill="none" stroke="#000000" stroke-miterlimit="10" cx="99.6" cy="521.8" rx="35.3" ry="16.3"/>
	<rect x="78.5" y="519.2" fill="none" width="79.4" height="28.4"/>
	<text transform="matrix(1 0 0 1 78.5269 524.8462)" font-family="'ArialMT'" font-size="7.9545">Rarity</text>
</g>
<ellipse fill="none" stroke="#000000" stroke-miterlimit="10" cx="98.2" cy="465.1" rx="35.3" ry="16.3"/>
<rect x="78.1" y="457.5" fill="none" width="51.8" height="28.4"/>
<text transform="matrix(1 0 0 1 78.1073 463.1565)" enable-background="new    "><tspan x="0" y="0" font-family="'ArialMT'" font-size="7.9545">Expansion</tspan><tspan x="0" y="9.5" font-family="'ArialMT'" font-size="7.9545">ID</tspan><tspan x="8" y="9.5" font-family="'ArialMT'" font-size="7.9545" letter-spacing="25">	</tspan></text>
<g>
	<ellipse fill="none" stroke="#000000" stroke-miterlimit="10" cx="99.6" cy="413.5" rx="35.3" ry="16.3"/>
	<rect x="78.5" y="410.9" fill="none" width="79.4" height="28.4"/>
	<text transform="matrix(1 0 0 1 78.5269 416.5662)" font-family="'ArialMT'" font-size="7.9545">Card Number</text>
</g>
<g>
	<ellipse fill="none" stroke="#000000" stroke-miterlimit="10" cx="105.3" cy="307.5" rx="35.3" ry="16.3"/>
	<rect x="84.2" y="304.9" fill="none" width="79.4" height="28.4"/>
	<text transform="matrix(1 0 0 1 84.2379 310.5756)" font-family="'ArialMT'" font-size="7.9545">Rules Text</text>
</g>
<rect x="361.1" y="132.4" fill="none" stroke="#000000" stroke-miterlimit="10" width="98.7" height="28"/>
<rect x="379.1" y="139.6" fill="none" width="74.2" height="26.5"/>
<text transform="matrix(1 0 0 1 379.0511 148.7954)" font-family="'ArialMT'" font-size="13.0055">Expansion</text>
<ellipse fill="none" stroke="#000000" stroke-miterlimit="10" cx="99.6" cy="358.3" rx="35.3" ry="16.3"/>
<rect x="78.5" y="355.7" fill="none" width="79.4" height="28.4"/>
<text transform="matrix(1 0 0 1 78.5269 361.3149)" font-family="'ArialMT'" font-size="7.9545">Multiverse ID</text>
<ellipse fill="none" stroke="#000000" stroke-miterlimit="10" cx="507.8" cy="103.3" rx="35.3" ry="16.3"/>
<rect x="486.7" y="100.7" fill="none" width="79.4" height="28.4"/>
<text transform="matrix(1 0 0 1 486.6978 106.378)" font-family="'ArialMT'" font-size="7.9545">Name</text>
<ellipse fill="none" stroke="#000000" stroke-miterlimit="10" cx="514.9" cy="174" rx="35.3" ry="16.3"/>
<rect x="493.8" y="171.4" fill="none" width="79.4" height="28.4"/>
<text transform="matrix(1 0 0 1 493.8277 177.0175)" font-family="'ArialMT'" font-size="7.9545">Release Date</text>
<ellipse fill="none" stroke="#000000" stroke-miterlimit="10" cx="510.4" cy="36.2" rx="41.1" ry="20.2"/>
<rect x="485.6" y="27.8" fill="none" width="79.4" height="28.4"/>
<text transform="matrix(1 0 0 1 485.5672 33.4318)" font-family="'ArialMT'" font-size="7.9545">Is this expansion </text>
<text transform="matrix(1 0 0 1 485.5672 42.9318)" font-family="'ArialMT'" font-size="7.9545">a set? T or F?</text>
<g>
	<ellipse fill="none" stroke="#000000" stroke-miterlimit="10" cx="510.1" cy="254.5" rx="35.3" ry="16.3"/>
	<rect x="484.4" y="251.9" fill="none" width="79.4" height="28.4"/>
	<text transform="matrix(1 0 0 1 484.3593 257.5824)" font-family="'ArialMT'" font-size="7.9545">Number of Cards</text>
</g>
<line fill="none" stroke="#000000" stroke-miterlimit="10" x1="142.6" y1="115.7" x2="244.4" y2="259.7"/>
<line fill="none" stroke="#000000" stroke-miterlimit="10" x1="142.6" y1="165.8" x2="227.4" y2="271.3"/>
<line fill="none" stroke="#000000" stroke-miterlimit="10" x1="142.6" y1="214.2" x2="208.4" y2="281.2"/>
<line fill="none" stroke="#000000" stroke-miterlimit="10" x1="148.4" y1="266.5" x2="208.4" y2="295.2"/>
<line fill="none" stroke="#000000" stroke-miterlimit="10" x1="140.6" y1="307.5" x2="202.4" y2="304.4"/>
<line fill="none" stroke="#000000" stroke-miterlimit="10" x1="142.6" y1="355.7" x2="217.3" y2="314.8"/>
<line fill="none" stroke="#000000" stroke-miterlimit="10" x1="140.6" y1="406.1" x2="235.2" y2="314.8"/>
<line fill="none" stroke="#000000" stroke-miterlimit="10" x1="140.6" y1="465.1" x2="259.4" y2="314.8"/>
<line fill="none" stroke="#000000" stroke-miterlimit="10" x1="140.6" y1="519.2" x2="272.3" y2="314.8"/>
<line fill="none" stroke="#000000" stroke-miterlimit="10" x1="78.4" y1="363.5" x2="121.9" y2="363.5"/>
<line fill="none" stroke="#000000" stroke-miterlimit="10" x1="472.4" y1="48.5" x2="424.9" y2="125.1"/>
<line fill="none" stroke="#000000" stroke-miterlimit="10" x1="448.7" y1="125.1" x2="474.8" y2="114.9"/>
<line fill="none" stroke="#000000" stroke-miterlimit="10" x1="442.9" y1="163.3" x2="479.6" y2="174"/>
<line fill="none" stroke="#000000" stroke-miterlimit="10" x1="416.1" y1="167.6" x2="474.8" y2="245.6"/>
<polygon fill="none" stroke="#000000" stroke-miterlimit="10" points="313.8,244.7 291.1,228.4 313.8,212.1 359.3,212.1 
	382.1,228.4 359.3,244.7 "/>
<rect x="313.4" y="224" fill="none" width="57.1" height="28.5"/>
<text transform="matrix(1 0 0 1 313.4069 232.496)" font-family="'ArialMT'" font-size="12">includes </text>
<line fill="none" stroke="#000000" stroke-miterlimit="10" x1="379.1" y1="166.1" x2="356" y2="200"/>
<line fill="none" stroke="#000000" stroke-miterlimit="10" x1="301" y1="245.7" x2="281" y2="274"/>
<ellipse fill="none" stroke="#000000" stroke-miterlimit="10" cx="503.4" cy="307.5" rx="35.3" ry="16.3"/>
<rect x="482.3" y="304.9" fill="none" width="79.4" height="28.4"/>
<text transform="matrix(1 0 0 1 482.3343 310.5756)" font-family="'ArialMT'" font-size="7.9545">Expansion ID</text>
<line fill="none" stroke="#000000" stroke-miterlimit="10" x1="481.6" y1="312.5" x2="525.2" y2="312.5"/>
<rect x="301" y="261" fill="none" width="42" height="26"/>
<text transform="matrix(1 0 0 1 301 269.52)" font-family="'ArialMT'" font-size="12">x</text>
<rect x="353" y="170.1" fill="none" width="42" height="26"/>
<text transform="matrix(1 0 0 1 353 178.575)" font-family="'ArialMT'" font-size="12">y</text>
</svg>
